REM DIRINDEX 1\8,1\2\11,1\3\12,1\3\14,1\5\15,1\5\16,1\6\17,1\6\18,1\4\19,1\4\20,1\4\21,1\4\22,1\7\23,1\7\24,1\7\25,1\2\9\26,1\2\9\27,1\2\10\28,1\2\10\29,1\2\10\30,1\2\10\31,1\2\10\32,1\3\13\33,1\3\13\34,1\3\13\35
REM DIRNAME folder01,folder02,folder03,folder04,folder05,folder06,folder07,folder08,folder09,folder10,folder11,folder12,folder13,folder14,folder15,folder16,folder17,folder18,folder19,folder20,folder21,folder22,folder23,folder24,folder25,folder26,folder27,folder28,folder29,folder30,folder31,folder32,folder33,folder34,folder35
TITLE ""
FILE "130 130_—á•¶UNIT2_SET2.mp3" MP3
  TRACK 01 AUDIO
    TITLE "22:cjc123_2958"
    INDEX 01 00:00:00
  TRACK 02 AUDIO
    TITLE "0:"
    INDEX 01 00:02:51
  TRACK 03 AUDIO
    TITLE "19:cjc123_2959"
    INDEX 01 00:03:29
  TRACK 04 AUDIO
    TITLE "0:"
    INDEX 01 00:06:43
  TRACK 05 AUDIO
    TITLE "20:cjc123_2960"
    INDEX 01 00:07:03
  TRACK 06 AUDIO
    TITLE "0:"
    INDEX 01 00:10:25
  TRACK 07 AUDIO
    TITLE "21:cjc123_2961"
    INDEX 01 00:10:61
  TRACK 08 AUDIO
    TITLE "0:"
    INDEX 01 00:14:00
  TRACK 09 AUDIO
    TITLE "19:cjc123_2962"
    INDEX 01 00:14:47
  TRACK 10 AUDIO
    TITLE "0:"
    INDEX 01 00:18:42
  TRACK 11 AUDIO
    TITLE "20:cjc123_2963"
    INDEX 01 00:19:07
  TRACK 12 AUDIO
    TITLE "0:"
    INDEX 01 00:23:34
  TRACK 13 AUDIO
    TITLE "21:cjc123_2964"
    INDEX 01 00:23:59
  TRACK 14 AUDIO
    TITLE "0:"
    INDEX 01 00:27:55
  TRACK 15 AUDIO
    TITLE "19:cjc123_2965"
    INDEX 01 00:28:43
  TRACK 16 AUDIO
    TITLE "0:"
    INDEX 01 00:31:49
  TRACK 17 AUDIO
    TITLE "20:cjc123_2966"
    INDEX 01 00:32:15
  TRACK 18 AUDIO
    TITLE "0:"
    INDEX 01 00:35:37
  TRACK 19 AUDIO
    TITLE "21:cjc123_2967"
    INDEX 01 00:35:68
  TRACK 20 AUDIO
    TITLE "0:"
    INDEX 01 00:39:00
  TRACK 21 AUDIO
    TITLE "19:cjc123_2968"
    INDEX 01 00:39:49
  TRACK 22 AUDIO
    TITLE "0:"
    INDEX 01 00:43:15
  TRACK 23 AUDIO
    TITLE "20:cjc123_2969"
    INDEX 01 00:43:46
  TRACK 24 AUDIO
    TITLE "0:"
    INDEX 01 00:47:48
  TRACK 25 AUDIO
    TITLE "21:cjc123_2970"
    INDEX 01 00:48:02
  TRACK 26 AUDIO
    TITLE "0:"
    INDEX 01 00:51:46
  TRACK 27 AUDIO
    TITLE "19:cjc123_2971"
    INDEX 01 00:52:16
  TRACK 28 AUDIO
    TITLE "0:"
    INDEX 01 00:56:37
  TRACK 29 AUDIO
    TITLE "20:cjc123_2972"
    INDEX 01 00:56:65
  TRACK 30 AUDIO
    TITLE "0:"
    INDEX 01 01:01:07
  TRACK 31 AUDIO
    TITLE "21:cjc123_2973"
    INDEX 01 01:01:34
  TRACK 32 AUDIO
    TITLE "0:"
    INDEX 01 01:05:54
  TRACK 33 AUDIO
    TITLE "19:cjc123_2974"
    INDEX 01 01:06:32
  TRACK 34 AUDIO
    TITLE "0:"
    INDEX 01 01:09:59
  TRACK 35 AUDIO
    TITLE "20:cjc123_2975"
    INDEX 01 01:10:31
  TRACK 36 AUDIO
    TITLE "0:"
    INDEX 01 01:14:17
  TRACK 37 AUDIO
    TITLE "21:cjc123_2976"
    INDEX 01 01:14:47
  TRACK 38 AUDIO
    TITLE "0:"
    INDEX 01 01:18:00
  TRACK 39 AUDIO
    TITLE "19:cjc123_2977"
    INDEX 01 01:18:64
  TRACK 40 AUDIO
    TITLE "0:"
    INDEX 01 01:22:41
  TRACK 41 AUDIO
    TITLE "20:cjc123_2978"
    INDEX 01 01:23:05
  TRACK 42 AUDIO
    TITLE "0:"
    INDEX 01 01:25:51
  TRACK 43 AUDIO
    TITLE "21:cjc123_2979"
    INDEX 01 01:26:03
  TRACK 44 AUDIO
    TITLE "0:"
    INDEX 01 01:29:54
  TRACK 45 AUDIO
    TITLE "19:cjc123_2980"
    INDEX 01 01:30:34
  TRACK 46 AUDIO
    TITLE "0:"
    INDEX 01 01:34:42
  TRACK 47 AUDIO
    TITLE "20:cjc123_2981"
    INDEX 01 01:34:71
  TRACK 48 AUDIO
    TITLE "0:"
    INDEX 01 01:38:36
  TRACK 49 AUDIO
    TITLE "21:cjc123_2982"
    INDEX 01 01:38:67
  TRACK 50 AUDIO
    TITLE "0:"
    INDEX 01 01:43:02
  TRACK 51 AUDIO
    TITLE "19:cjc123_2983"
    INDEX 01 01:43:52
  TRACK 52 AUDIO
    TITLE "0:"
    INDEX 01 01:47:15
  TRACK 53 AUDIO
    TITLE "20:cjc123_2984"
    INDEX 01 01:47:44
  TRACK 54 AUDIO
    TITLE "0:"
    INDEX 01 01:50:60
  TRACK 55 AUDIO
    TITLE "21:cjc123_2985"
    INDEX 01 01:51:15
  TRACK 56 AUDIO
    TITLE "0:"
    INDEX 01 01:54:52
  TRACK 57 AUDIO
    TITLE "19:cjc123_2986"
    INDEX 01 01:55:18
  TRACK 58 AUDIO
    TITLE "0:"
    INDEX 01 01:58:72
  TRACK 59 AUDIO
    TITLE "20:cjc123_2987"
    INDEX 01 01:59:36
  TRACK 60 AUDIO
    TITLE "0:"
    INDEX 01 02:02:42
  TRACK 61 AUDIO
    TITLE "21:cjc123_2988"
    INDEX 01 02:02:67
  TRACK 62 AUDIO
    TITLE "0:"
    INDEX 01 02:06:46
  TRACK 63 AUDIO
    TITLE "19:cjc123_2989"
    INDEX 01 02:07:26
  TRACK 64 AUDIO
    TITLE "0:"
    INDEX 01 02:11:06
  TRACK 65 AUDIO
    TITLE "20:cjc123_2990"
    INDEX 01 02:11:35
  TRACK 66 AUDIO
    TITLE "0:"
    INDEX 01 02:14:24
  TRACK 67 AUDIO
    TITLE "21:cjc123_2991"
    INDEX 01 02:14:55
  TRACK 68 AUDIO
    TITLE "0:"
    INDEX 01 02:18:33
  TRACK 69 AUDIO
    TITLE "19:cjc123_2992"
    INDEX 01 02:19:03
  TRACK 70 AUDIO
    TITLE "0:"
    INDEX 01 02:23:40
  TRACK 71 AUDIO
    TITLE "20:cjc123_2993"
    INDEX 01 02:23:70
  TRACK 72 AUDIO
    TITLE "0:"
    INDEX 01 02:28:67
  TRACK 73 AUDIO
    TITLE "21:cjc123_2994"
    INDEX 01 02:29:17
  TRACK 74 AUDIO
    TITLE "0:"
    INDEX 01 02:33:52
  TRACK 75 AUDIO
    TITLE "19:cjc123_2995"
    INDEX 01 02:34:24
  TRACK 76 AUDIO
    TITLE "0:"
    INDEX 01 02:38:18
  TRACK 77 AUDIO
    TITLE "20:cjc123_2996"
    INDEX 01 02:38:50
  TRACK 78 AUDIO
    TITLE "0:"
    INDEX 01 02:43:00
  TRACK 79 AUDIO
    TITLE "21:cjc123_2997"
    INDEX 01 02:43:29
  TRACK 80 AUDIO
    TITLE "0:"
    INDEX 01 02:47:25
  TRACK 81 AUDIO
    TITLE "19:cjc123_2998"
    INDEX 01 02:47:72
  TRACK 82 AUDIO
    TITLE "0:"
    INDEX 01 02:51:54
  TRACK 83 AUDIO
    TITLE "20:cjc123_2999"
    INDEX 01 02:52:14
  TRACK 84 AUDIO
    TITLE "0:"
    INDEX 01 02:55:66
  TRACK 85 AUDIO
    TITLE "21:cjc123_3000"
    INDEX 01 02:56:20
  TRACK 86 AUDIO
    TITLE "0:"
    INDEX 01 03:00:00
  TRACK 87 AUDIO
    TITLE "19:cjc123_3001"
    INDEX 01 03:00:57
  TRACK 88 AUDIO
    TITLE "0:"
    INDEX 01 03:03:22
  TRACK 89 AUDIO
    TITLE "20:cjc123_3002"
    INDEX 01 03:03:53
  TRACK 90 AUDIO
    TITLE "0:"
    INDEX 01 03:06:24
  TRACK 91 AUDIO
    TITLE "21:cjc123_3003"
    INDEX 01 03:06:50
  TRACK 92 AUDIO
    TITLE "0:"
    INDEX 01 03:09:15
